<?xml version="1.0" encoding="UTF-8" standalone="no"?>
<!-- Created with Inkscape (http://www.inkscape.org/) -->

<svg
        xmlns:dc="http://purl.org/dc/elements/1.1/"
        xmlns:cc="http://creativecommons.org/ns#"
        xmlns:rdf="http://www.w3.org/1999/02/22-rdf-syntax-ns#"
        xmlns="http://www.w3.org/2000/svg"
        xmlns:sodipodi="http://sodipodi.sourceforge.net/DTD/sodipodi-0.dtd"
        xmlns:inkscape="http://www.inkscape.org/namespaces/inkscape"
        width="123.78728mm"
        height="31.939135mm"
        viewBox="0 0 123.78728 31.939135"
        version="1.1"
        id="svg8"
        inkscape:version="0.92.1 r15371"
        sodipodi:docname="jumbotron_text.svg">
    <defs
            id="defs2"/>
    <sodipodi:namedview
            id="base"
            pagecolor="#ffffff"
            bordercolor="#666666"
            borderopacity="1.0"
            inkscape:pageopacity="0.0"
            inkscape:pageshadow="2"
            inkscape:zoom="2.8"
            inkscape:cx="236.32542"
            inkscape:cy="24.704473"
            inkscape:document-units="mm"
            inkscape:current-layer="layer1"
            showgrid="false"
            inkscape:window-width="1920"
            inkscape:window-height="1027"
            inkscape:window-x="-8"
            inkscape:window-y="-8"
            inkscape:window-maximized="1"/>
    <metadata
            id="metadata5">
        <rdf:RDF>
            <cc:Work
                    rdf:about="">
                <dc:format>image/svg+xml</dc:format>
                <dc:type
                        rdf:resource="http://purl.org/dc/dcmitype/StillImage"/>
                <dc:title></dc:title>
            </cc:Work>
        </rdf:RDF>
    </metadata>
    <g
            inkscape:label="Layer 1"
            inkscape:groupmode="layer"
            id="layer1"
            transform="translate(-0.56689045,0.08940023)">
        <path
                style="fill:#ffffff;stroke-width:0.85246021"
                d="M 2.1425781,-0.33789062 V 120.37695 H 470 V -0.33789062 Z M 392.25391,13.427734 h 4.74023 v 12.03125 l -0.20898,3.75 h 0.26172 c 0.43404,-0.746528 0.94489,-1.38954 1.53515,-1.927734 0.60765,-0.555556 1.26866,-1.014323 1.98047,-1.378906 0.71179,-0.364584 1.46701,-0.634983 2.26562,-0.808594 0.79862,-0.173611 1.61394,-0.259766 2.44727,-0.259766 3.1771,0 5.56491,0.833334 7.16211,2.5 1.61459,1.649306 2.42188,4.297526 2.42188,7.94336 v 18.671875 h -4.74024 v -18.41211 c 0,-2.256944 -0.46072,-3.949652 -1.38086,-5.078125 -0.90278,-1.128472 -2.32509,-1.693359 -4.26953,-1.693359 -1.40626,0 -2.58811,0.226345 -3.54297,0.677734 -0.95486,0.451389 -1.72612,1.120443 -2.3164,2.00586 -0.57291,0.885417 -0.98957,1.969184 -1.25,3.253906 -0.24315,1.284722 -0.36524,2.761067 -0.36524,4.427734 v 14.81836 h -4.74023 z M 34.025391,15.875 c 2.708333,0 5.200303,0.442708 7.474609,1.328125 2.274306,0.868056 4.23546,2.128038 5.884766,3.777344 1.666665,1.631944 2.960718,3.62717 3.880859,5.988281 0.920139,2.34375 1.378906,4.99197 1.378906,7.943359 0,1.076389 -0.08616,2.162109 -0.259765,3.25586 -0.156246,1.076387 -0.398649,2.108072 -0.728516,3.097656 -0.312499,0.972223 -0.721136,1.883681 -1.224609,2.734375 -0.486111,0.833335 -1.059029,1.562502 -1.71875,2.1875 -0.659722,0.625 -1.414929,1.119792 -2.265625,1.484375 -0.833333,0.347223 -1.752822,0.521484 -2.759766,0.521484 -0.781251,0 -1.494358,-0.130208 -2.136719,-0.390625 -0.625,-0.260417 -1.161892,-0.606989 -1.613281,-1.041015 -0.451389,-0.434029 -0.825955,-0.92882 -1.121094,-1.484375 -0.277777,-0.572919 -0.468099,-1.163847 -0.572265,-1.771485 h -0.103516 c -0.312499,0.642361 -0.703125,1.24935 -1.171875,1.822266 -0.46875,0.572916 -1.015625,1.07769 -1.640625,1.511719 -0.607639,0.416667 -1.302734,0.745227 -2.083984,0.988281 -0.76389,0.243049 -1.605252,0.365234 -2.525391,0.365234 -1.336806,0 -2.526693,-0.242405 -3.568359,-0.728515 -1.024306,-0.486113 -1.891711,-1.163196 -2.603516,-2.03125 -0.711805,-0.885418 -1.25868,-1.945097 -1.640625,-3.177735 -0.364583,-1.23264 -0.546875,-2.594836 -0.546875,-4.08789 0,-1.753474 0.250434,-3.360026 0.753906,-4.81836 0.520826,-1.458326 1.259983,-2.716362 2.214844,-3.77539 0.972222,-1.059028 2.144097,-1.884332 3.515625,-2.47461 1.371528,-0.590277 2.907986,-0.884765 4.609375,-0.884765 0.78125,0 1.5625,0.03407 2.34375,0.103515 0.78125,0.06944 1.526477,0.165583 2.238281,0.28711 0.711806,0.121527 1.362846,0.259764 1.953125,0.416015 0.607637,0.138888 1.112412,0.277126 1.511719,0.416016 l -0.599609,10.833984 c -0.01739,0.381947 -0.0354,0.694447 -0.05273,0.9375 v 0.546875 0.3125 V 40.25 c 0,0.920139 0.08811,1.675348 0.261719,2.265625 0.190967,0.590279 0.433372,1.059027 0.728516,1.40625 0.29514,0.347223 0.625651,0.589628 0.990234,0.728516 0.381944,0.121524 0.77257,0.183593 1.171875,0.183593 0.798612,0 1.501735,-0.260416 2.109375,-0.78125 0.607637,-0.538194 1.110459,-1.259331 1.509766,-2.162109 0.416665,-0.902778 0.729165,-1.962458 0.9375,-3.177734 0.208327,-1.215279 0.3125,-2.499349 0.3125,-3.853516 0,-2.465278 -0.372614,-4.652778 -1.119141,-6.5625 -0.746517,-1.927069 -1.780164,-3.549696 -3.099609,-4.869141 -1.319446,-1.319444 -2.889974,-2.317057 -4.712891,-2.99414 -1.805555,-0.694445 -3.776693,-1.042969 -5.912109,-1.042969 -2.934028,0 -5.520183,0.486762 -7.759766,1.458984 -2.239583,0.954861 -4.124566,2.300999 -5.652344,4.03711 -1.510416,1.71875 -2.65625,3.766059 -3.4375,6.144531 -0.78125,2.361111 -1.171875,4.949219 -1.171875,7.761719 0,2.621528 0.338542,4.947266 1.015625,6.978515 0.694445,2.031252 1.70204,3.741972 3.021485,5.13086 1.336805,1.388888 2.98546,2.438584 4.947265,3.15039 1.979167,0.711806 4.244792,1.06836 6.796875,1.06836 1.059028,0 2.100695,-0.06207 3.125,-0.183594 1.041667,-0.121524 2.041234,-0.285803 2.996094,-0.494141 0.972223,-0.208327 1.891709,-0.442703 2.759766,-0.703125 0.868054,-0.277777 1.675345,-0.564236 2.421875,-0.859375 v 3.671875 c -1.493057,0.659722 -3.177734,1.180556 -5.052735,1.5625 -1.874999,0.381944 -3.940321,0.572266 -6.197265,0.572266 -3.107639,0 -5.886068,-0.442708 -8.333985,-1.328125 -2.43056,-0.885417 -4.495881,-2.169487 -6.19727,-3.853516 C 15.622613,51.80447 14.338542,49.739147 13.453125,47.308594 12.567708,44.860677 12.125,42.08225 12.125,38.974609 c 0,-3.263887 0.510851,-6.302734 1.535156,-9.115234 1.024306,-2.829861 2.482639,-5.277778 4.375,-7.34375 C 19.944878,20.449653 22.246528,18.82704 24.9375,17.646484 27.645833,16.465929 30.674696,15.875 34.025391,15.875 Z m 26.693359,0 h 4.84375 v 33.75 h 14.921875 v 4.324219 H 60.71875 Z m 145.3125,0 h 9.26953 c 4.61805,0 8.02951,0.895399 10.23438,2.683594 2.20486,1.788194 3.30859,4.496527 3.30859,8.125 0,1.510417 -0.21832,2.828559 -0.65234,3.957031 -0.41667,1.128472 -0.9796,2.101996 -1.69141,2.917969 -0.69445,0.798611 -1.49371,1.465712 -2.39648,2.003906 -0.90278,0.538195 -1.83225,0.980903 -2.78711,1.328125 l 10.36523,17.058594 h -5.70312 L 216.83789,38.21875 H 210.875 v 15.730469 h -4.84375 z m 4.84375,4.140625 v 14.089844 h 4.26953 c 1.5625,0 2.89063,-0.148221 3.98438,-0.44336 1.09375,-0.3125 1.98915,-0.763237 2.68359,-1.353515 0.71181,-0.607639 1.22265,-1.354818 1.53516,-2.240235 0.32986,-0.902778 0.49609,-1.952474 0.49609,-3.15039 0,-1.25 -0.18229,-2.309679 -0.54687,-3.177735 -0.34723,-0.868055 -0.88607,-1.57921 -1.61524,-2.134765 -0.7118,-0.555556 -1.62326,-0.956163 -2.73437,-1.199219 -1.09375,-0.260417 -2.39584,-0.390625 -3.90625,-0.390625 z M 95.535156,24.833984 c 1.770835,0 3.299263,0.182292 4.583984,0.546875 1.30208,0.347223 2.36979,0.91211 3.20313,1.69336 0.85069,0.763889 1.48372,1.743489 1.90039,2.941406 0.41666,1.197917 0.625,2.648221 0.625,4.349609 v 19.583985 h -3.41016 l -0.96484,-3.958985 h -0.20704 c -0.57291,0.781251 -1.14583,1.458334 -1.718745,2.03125 -0.572918,0.555556 -1.197918,1.016276 -1.875,1.38086 -0.677085,0.364583 -1.432292,0.633029 -2.265625,0.80664 -0.833333,0.173607 -1.796875,0.259766 -2.890625,0.259766 -1.197916,0 -2.301649,-0.172309 -3.308594,-0.519531 -1.006944,-0.32986 -1.882376,-0.842664 -2.628906,-1.53711 -0.729167,-0.711806 -1.302085,-1.597223 -1.71875,-2.65625 -0.416668,-1.076389 -0.625,-2.344401 -0.625,-3.802734 0,-2.847224 0.997613,-5.034724 2.994141,-6.5625 2.013888,-1.527779 5.068791,-2.361111 9.166015,-2.5 l 4.792969,-0.181641 v -1.796875 c 0,-1.163194 -0.13021,-2.134765 -0.39062,-2.916015 -0.24305,-0.78125 -0.60764,-1.40625 -1.093755,-1.875 -0.46875,-0.486111 -1.059678,-0.834636 -1.771484,-1.042969 -0.694446,-0.208333 -1.493707,-0.3125 -2.396485,-0.3125 -1.440972,0 -2.785158,0.208333 -4.035156,0.625 -1.23264,0.416667 -2.422525,0.921441 -3.568359,1.511719 l -1.666016,-3.56836 c 1.284722,-0.694444 2.717012,-1.285373 4.296875,-1.771484 1.57986,-0.486111 3.236545,-0.728516 4.972656,-0.728516 z m 31.484374,0 c 0.50347,0 1.06836,0.02604 1.69336,0.07813 0.625,0.03472 1.16385,0.09483 1.61523,0.181641 l -0.625,4.375 c -0.48611,-0.08681 -0.99088,-0.154947 -1.51171,-0.207031 -0.50348,-0.06944 -0.98026,-0.105469 -1.43164,-0.105469 -1.09375,0 -2.09137,0.226345 -2.99415,0.677734 -0.90277,0.434028 -1.68402,1.067058 -2.34374,1.900391 -0.64237,0.815972 -1.14714,1.805556 -1.51172,2.96875 -0.34723,1.145833 -0.51954,2.421876 -0.51954,3.828125 v 15.417969 h -4.74023 v -28.59375 h 3.85352 l 0.57421,5.234375 h 0.20704 c 0.43403,-0.746528 0.89475,-1.467665 1.38086,-2.16211 0.50347,-0.694444 1.05837,-1.301432 1.66601,-1.822265 0.625,-0.538195 1.3201,-0.964844 2.08399,-1.277344 0.76388,-0.329861 1.63129,-0.494141 2.60351,-0.494141 z m 17.21485,0 c 0.64236,0 1.30143,0.05208 1.97851,0.15625 0.69445,0.08681 1.27539,0.208984 1.74414,0.365235 h 9.45313 v 2.941406 L 152.28125,29 c 0.48611,0.607639 0.89279,1.388889 1.22266,2.34375 0.32986,0.9375 0.49609,2.005208 0.49609,3.203125 0,1.319444 -0.20833,2.543403 -0.625,3.671875 -0.39931,1.111111 -1.01628,2.074653 -1.84961,2.890625 -0.81597,0.815972 -1.8316,1.458985 -3.04687,1.927734 -1.21528,0.451389 -2.62956,0.677735 -4.24414,0.677735 h -1.14649 c -0.38194,-0.01739 -0.69444,-0.05341 -0.9375,-0.105469 -0.29514,0.173606 -0.58963,0.373911 -0.88477,0.599609 -0.27777,0.208328 -0.53819,0.450733 -0.78124,0.728516 -0.22569,0.277778 -0.41797,0.590277 -0.57422,0.9375 -0.13889,0.347223 -0.20704,0.729817 -0.20704,1.146484 0,0.46875 0.10418,0.851346 0.3125,1.146485 0.20833,0.277777 0.48481,0.49414 0.83204,0.65039 0.36458,0.156246 0.79123,0.260418 1.27734,0.3125 0.48611,0.05208 0.99696,0.07813 1.53516,0.07813 h 4.58398 c 1.61458,0 2.97678,0.208335 4.08789,0.625 1.11111,0.399307 2.01454,0.946183 2.70899,1.640625 0.7118,0.694446 1.22461,1.51975 1.5371,2.47461 0.31251,0.937501 0.46876,1.935114 0.46876,2.99414 0,1.527779 -0.28646,2.899955 -0.85938,4.115235 -0.55556,1.215277 -1.41493,2.238932 -2.57812,3.072265 -1.1632,0.850696 -2.63954,1.501736 -4.42774,1.953125 -1.77083,0.451389 -3.8622,0.677735 -6.27539,0.677735 -1.85764,0 -3.48221,-0.182292 -4.87109,-0.546875 -1.38889,-0.364586 -2.54276,-0.895401 -3.46289,-1.589844 -0.92014,-0.694445 -1.61524,-1.535807 -2.08399,-2.525391 -0.45139,-0.97222 -0.67578,-2.074 -0.67578,-3.30664 0,-1.041666 0.16428,-1.963107 0.49414,-2.761719 0.34722,-0.781251 0.80794,-1.458334 1.38086,-2.03125 0.57292,-0.572916 1.23199,-1.041664 1.97852,-1.40625 0.76388,-0.364583 1.55316,-0.641059 2.36914,-0.832031 -0.72917,-0.32986 -1.32813,-0.850694 -1.79688,-1.5625 -0.46875,-0.711806 -0.70312,-1.52908 -0.70312,-2.449219 0,-1.059029 0.27843,-1.970487 0.83398,-2.734375 0.55556,-0.781256 1.43294,-1.536463 2.63086,-2.26563 -0.74653,-0.312499 -1.43359,-0.737196 -2.05859,-1.275391 -0.60764,-0.555555 -1.12848,-1.180554 -1.5625,-1.875 -0.41667,-0.711806 -0.74523,-1.485026 -0.98829,-2.318359 -0.22568,-0.833333 -0.33984,-1.692708 -0.33984,-2.578125 0,-1.545139 0.21832,-2.925347 0.65234,-4.140625 0.43403,-1.215278 1.07509,-2.246962 1.92579,-3.097656 0.85069,-0.850695 1.91037,-1.501736 3.17773,-1.953125 1.26736,-0.451389 2.74371,-0.677735 4.42774,-0.677735 z m 28.98437,0 c 1.71875,0 3.26324,0.3125 4.63477,0.9375 1.37152,0.607639 2.53537,1.475044 3.49023,2.603516 0.95486,1.111111 1.68403,2.457248 2.1875,4.037109 0.52083,1.5625 0.78125,3.299263 0.78125,5.208985 V 40.5625 h -18.02148 c 0.0868,3.350695 0.78992,5.816624 2.10937,7.396484 1.3368,1.579863 3.31597,2.369141 5.9375,2.369141 0.88542,0 1.70074,-0.0421 2.44727,-0.128906 0.76389,-0.0868 1.49305,-0.208989 2.1875,-0.365235 0.7118,-0.173606 1.39887,-0.381941 2.05859,-0.625 0.65972,-0.260417 1.32682,-0.546873 2.00391,-0.859375 v 4.21875 c -0.69445,0.329862 -1.37956,0.616319 -2.05664,0.859375 -0.65973,0.243049 -1.34484,0.443354 -2.05664,0.59961 -0.69445,0.156245 -1.42362,0.268448 -2.1875,0.33789 -0.74653,0.06944 -1.56381,0.103519 -2.44922,0.103516 -1.90973,0 -3.65452,-0.32053 -5.23438,-0.962891 -1.57986,-0.642361 -2.94206,-1.579862 -4.08789,-2.8125 -1.12847,-1.23264 -2.00586,-2.761067 -2.63086,-4.583984 -0.625,-1.822917 -0.9375,-3.906249 -0.9375,-6.25 0,-2.361111 0.28646,-4.470486 0.85938,-6.328125 0.57291,-1.857639 1.38021,-3.428168 2.42187,-4.712891 1.04167,-1.302083 2.28364,-2.291666 3.72461,-2.96875 1.45833,-0.677083 3.06489,-1.015625 4.81836,-1.015625 z m 73.85352,0 c 1.71875,0 3.26323,0.3125 4.63476,0.9375 1.37153,0.607639 2.53538,1.475044 3.49024,2.603516 0.95486,1.111111 1.68402,2.457248 2.1875,4.037109 0.52083,1.5625 0.78125,3.299263 0.78125,5.208985 V 40.5625 h -18.02149 c 0.0868,3.350695 0.78993,5.816624 2.10938,7.396484 1.3368,1.579863 3.31597,2.369141 5.9375,2.369141 0.88541,0 1.70269,-0.0421 2.44921,-0.128906 0.76389,-0.0868 1.49306,-0.208989 2.1875,-0.365235 0.71181,-0.173606 1.39692,-0.381941 2.05665,-0.625 0.65972,-0.260417 1.32877,-0.546873 2.00585,-0.859375 v 4.21875 c -0.69444,0.329862 -1.38151,0.616319 -2.05859,0.859375 -0.65972,0.243049 -1.34484,0.443354 -2.05664,0.59961 -0.69444,0.156245 -1.42361,0.268448 -2.1875,0.33789 -0.74653,0.06944 -1.56185,0.103519 -2.44727,0.103516 -1.90972,0 -3.65451,-0.32053 -5.23437,-0.962891 -1.57986,-0.642361 -2.94401,-1.579862 -4.08984,-2.8125 -1.12847,-1.23264 -2.00391,-2.761067 -2.62891,-4.583984 -0.625,-1.822917 -0.9375,-3.906249 -0.9375,-6.25 0,-2.361111 0.28646,-4.470486 0.85938,-6.328125 0.57291,-1.857639 1.3802,-3.428168 2.42187,-4.712891 1.04167,-1.302083 2.28168,-2.291666 3.72266,-2.96875 1.45833,-0.677083 3.06488,-1.015625 4.81836,-1.015625 z m 26.45898,0 c 1.68403,0 3.22049,0.182292 4.60937,0.546875 1.40626,0.364584 2.73438,0.841363 3.98438,1.431641 l -1.64062,3.828125 c -1.12848,-0.503472 -2.29232,-0.936198 -3.49024,-1.300781 -1.18055,-0.381945 -2.3865,-0.574219 -3.61914,-0.574219 -1.77083,0 -3.0829,0.296441 -3.93359,0.886719 -0.8507,0.572916 -1.27539,1.396267 -1.27539,2.472656 0,0.607639 0.0961,1.138455 0.2871,1.589844 0.20833,0.451389 0.5549,0.876085 1.04102,1.27539 0.48611,0.399306 1.13715,0.807943 1.95313,1.22461 0.81597,0.399305 1.83159,0.850043 3.04687,1.353515 1.25,0.520834 2.36176,1.041666 3.33398,1.5625 0.98959,0.520832 1.83095,1.111761 2.5254,1.771485 0.69444,0.642361 1.2233,1.379557 1.58789,2.21289 0.36458,0.833333 0.54687,1.830946 0.54687,2.994141 0,1.388888 -0.25043,2.604816 -0.7539,3.646484 -0.50348,1.041666 -1.23265,1.919054 -2.1875,2.63086 -0.93751,0.694445 -2.07531,1.21528 -3.41211,1.5625 -1.33681,0.347222 -2.8392,0.519531 -4.50586,0.519531 -1.89236,0 -3.51498,-0.156251 -4.86914,-0.46875 -1.35417,-0.295138 -2.54406,-0.737846 -3.56836,-1.328125 v -4.322266 c 0.53819,0.277778 1.13715,0.556207 1.79687,0.833985 0.65972,0.260417 1.35482,0.49479 2.08399,0.703125 0.72916,0.208327 1.47634,0.380638 2.24023,0.519531 0.78125,0.121524 1.55252,0.183594 2.31641,0.183594 1.12847,0 2.08398,-0.09614 2.86523,-0.28711 0.79861,-0.190967 1.44162,-0.459413 1.92774,-0.80664 0.50347,-0.364584 0.86805,-0.799261 1.09374,-1.302735 0.22569,-0.520834 0.3379,-1.093752 0.3379,-1.71875 0,-0.538194 -0.0862,-1.024956 -0.25977,-1.458984 -0.17361,-0.434028 -0.49609,-0.858723 -0.96484,-1.275391 -0.45139,-0.434025 -1.07639,-0.868706 -1.875,-1.302734 -0.79861,-0.434028 -1.82227,-0.918837 -3.07227,-1.457031 -1.25,-0.538195 -2.37782,-1.069013 -3.38476,-1.589844 -0.98959,-0.520834 -1.8329,-1.101779 -2.52735,-1.744141 -0.69444,-0.642361 -1.23133,-1.379557 -1.61328,-2.21289 -0.36458,-0.850695 -0.54688,-1.85829 -0.54687,-3.021485 0,-1.215277 0.23437,-2.291015 0.70312,-3.228515 0.48611,-0.954861 1.16319,-1.754123 2.03125,-2.396485 0.86805,-0.642361 1.90972,-1.129123 3.125,-1.458984 1.21528,-0.329861 2.56945,-0.494141 4.0625,-0.494141 z m 26.14453,0 c 1.71875,0 3.26519,0.3125 4.63672,0.9375 1.37153,0.607639 2.53342,1.475044 3.48828,2.603516 0.95486,1.111111 1.68403,2.457248 2.1875,4.037109 0.52083,1.5625 0.78125,3.299263 0.78125,5.208985 V 40.5625 H 292.75 c 0.0868,3.350695 0.78993,5.816624 2.10938,7.396484 1.3368,1.579863 3.31597,2.369141 5.9375,2.369141 0.88541,0 1.70073,-0.0421 2.44726,-0.128906 0.76389,-0.0868 1.49306,-0.208989 2.1875,-0.365235 0.71181,-0.173606 1.39692,-0.381941 2.05664,-0.625 0.65973,-0.260417 1.32878,-0.546873 2.00586,-0.859375 v 4.21875 c -0.69444,0.329862 -1.37956,0.616319 -2.05664,0.859375 -0.65972,0.243049 -1.34679,0.443354 -2.05859,0.59961 -0.69445,0.156245 -1.42362,0.268448 -2.1875,0.33789 -0.74653,0.06944 -1.56185,0.103519 -2.44727,0.103516 -1.90972,0 -3.65451,-0.32053 -5.23437,-0.962891 -1.57986,-0.642361 -2.94206,-1.579862 -4.08789,-2.8125 -1.12848,-1.23264 -2.00586,-2.761067 -2.63086,-4.583984 -0.625,-1.822917 -0.9375,-3.906249 -0.9375,-6.25 0,-2.361111 0.28645,-4.470486 0.85937,-6.328125 0.57292,-1.857639 1.38021,-3.428168 2.42188,-4.712891 1.04166,-1.302083 2.28363,-2.291666 3.72461,-2.96875 1.45833,-0.677083 3.06293,-1.015625 4.8164,-1.015625 z m 27.52734,0 c 1.77084,0 3.29731,0.182292 4.58204,0.546875 1.30208,0.347223 2.36979,0.91211 3.20312,1.69336 0.85069,0.763889 1.48568,1.743489 1.90234,2.941406 0.41667,1.197917 0.625,2.648221 0.625,4.349609 v 19.583985 h -3.4121 l -0.9629,-3.958985 h -0.20898 c -0.57292,0.781251 -1.14583,1.458334 -1.71875,2.03125 -0.57292,0.555556 -1.19791,1.016276 -1.875,1.38086 -0.67708,0.364583 -1.43229,0.633029 -2.26562,0.80664 -0.83334,0.173607 -1.79688,0.259766 -2.89063,0.259766 -1.19792,0 -2.2997,-0.172309 -3.30664,-0.519531 -1.00694,-0.32986 -1.88433,-0.842664 -2.63086,-1.53711 -0.72917,-0.711806 -1.30208,-1.597223 -1.71875,-2.65625 -0.41666,-1.076389 -0.625,-2.344401 -0.625,-3.802734 0,-2.847224 0.99761,-5.034724 2.99414,-6.5625 2.01389,-1.527779 5.07075,-2.361111 9.16797,-2.5 l 4.79102,-0.181641 v -1.796875 c 0,-1.163194 -0.13021,-2.134765 -0.39063,-2.916015 -0.24305,-0.78125 -0.60763,-1.40625 -1.09375,-1.875 -0.46875,-0.486111 -1.05968,-0.834636 -1.77148,-1.042969 -0.69445,-0.208333 -1.49176,-0.3125 -2.39454,-0.3125 -1.44097,0 -2.7871,0.208333 -4.0371,0.625 -1.23264,0.416667 -2.42253,0.921441 -3.56836,1.511719 l -1.66602,-3.56836 c 1.28473,-0.694444 2.71702,-1.285373 4.29688,-1.771484 1.57986,-0.486111 3.23849,-0.728516 4.9746,-0.728516 z m 31.48438,0 c 0.50347,0 1.06641,0.02604 1.69141,0.07813 0.625,0.03472 1.16384,0.09483 1.61523,0.181641 l -0.625,4.375 c -0.48611,-0.08681 -0.98893,-0.154947 -1.50976,-0.207031 -0.50348,-0.06944 -0.98221,-0.105469 -1.4336,-0.105469 -1.09375,0 -2.09136,0.226345 -2.99414,0.677734 -0.90278,0.434028 -1.68403,1.067058 -2.34375,1.900391 -0.64236,0.815972 -1.14518,1.805556 -1.50977,2.96875 -0.34722,1.145833 -0.52148,2.421876 -0.52148,3.828125 v 15.417969 h -4.74023 v -28.59375 h 3.85547 l 0.57226,5.234375 h 0.20898 c 0.43404,-0.746528 0.8928,-1.467665 1.37891,-2.16211 0.50347,-0.694444 1.06033,-1.301432 1.66797,-1.822265 0.625,-0.538195 1.31814,-0.964844 2.08203,-1.277344 0.76389,-0.329861 1.63325,-0.494141 2.60547,-0.494141 z m 20.02539,0 c 1.35415,0 2.67425,0.148221 3.95899,0.44336 1.30207,0.295139 2.38584,0.659722 3.2539,1.09375 l -1.40625,4.009765 c -0.39929,-0.173611 -0.842,-0.33789 -1.32812,-0.49414 -0.4861,-0.173612 -0.98893,-0.321832 -1.50977,-0.44336 -0.52084,-0.13889 -1.03365,-0.243057 -1.53711,-0.3125 C 379.64105,29.044054 379.16427,29 378.71289,29 375.98719,29 374,29.877387 372.75,31.630859 c -1.25,1.736112 -1.875,4.444446 -1.875,8.125 0,3.663197 0.625,6.345488 1.875,8.046875 1.26736,1.684029 3.18445,2.525391 5.75391,2.525391 1.40623,0 2.67424,-0.156249 3.80273,-0.46875 1.14583,-0.32986 2.1875,-0.710503 3.125,-1.144531 v 4.21875 c -0.9375,0.503473 -1.9451,0.884117 -3.02148,1.144531 -1.05905,0.260417 -2.36113,0.390625 -3.90625,0.390625 -1.75348,0 -3.3941,-0.268446 -4.92188,-0.806641 -1.52778,-0.555555 -2.8559,-1.42296 -3.98437,-2.603515 -1.12848,-1.197916 -2.01389,-2.718317 -2.65625,-4.558594 -0.64236,-1.85764 -0.96289,-4.087241 -0.96289,-6.691406 0,-2.725696 0.33051,-5.035373 0.99023,-6.927735 0.65972,-1.909722 1.5612,-3.45421 2.70703,-4.634765 1.1632,-1.197917 2.51736,-2.067275 4.0625,-2.605469 1.54514,-0.538195 3.20377,-0.806641 4.97461,-0.806641 z m -234.6875,3.41211 c -1.71875,0 -3.03885,0.520833 -3.95898,1.5625 -0.92014,1.041666 -1.37891,2.620225 -1.37891,4.738281 0,1.996528 0.46875,3.480902 1.40625,4.453125 0.9375,0.97222 2.26563,1.458984 3.98437,1.458984 1.73612,0 3.04623,-0.47678 3.93165,-1.43164 0.90277,-0.972223 1.35351,-2.492622 1.35351,-4.558594 0,-2.135417 -0.45877,-3.705946 -1.3789,-4.712891 -0.90278,-1.006944 -2.22288,-1.509765 -3.95899,-1.509765 z m 29.08789,0.519531 c -1.97916,0 -3.54969,0.677083 -4.71289,2.03125 -1.14583,1.354167 -1.81489,3.325304 -2.00586,5.912109 h 12.8125 c 0,-1.180555 -0.12023,-2.256293 -0.36328,-3.228515 -0.2257,-0.989584 -0.59028,-1.8329 -1.09375,-2.527344 -0.48611,-0.694445 -1.11111,-1.231337 -1.875,-1.613281 -0.76389,-0.381945 -1.68533,-0.574219 -2.76172,-0.574219 z m 73.85547,0 c -1.97917,0 -3.55165,0.677083 -4.71484,2.03125 -1.14584,1.354167 -1.81294,3.325304 -2.00391,5.912109 h 12.8125 c 0,-1.180555 -0.12219,-2.256293 -0.36523,-3.228515 -0.22571,-0.989584 -0.59028,-1.8329 -1.09375,-2.527344 -0.48611,-0.694445 -1.11111,-1.231337 -1.875,-1.613281 -0.76389,-0.381945 -1.68338,-0.574219 -2.75977,-0.574219 z m 52.60352,0 c -1.97917,0 -3.5497,0.677083 -4.71289,2.03125 -1.14584,1.354167 -1.81489,3.325304 -2.00586,5.912109 h 12.8125 c 0,-1.180555 -0.12219,-2.256293 -0.36524,-3.228515 -0.2257,-0.989584 -0.59028,-1.8329 -1.09375,-2.527344 -0.48611,-0.694445 -1.11111,-1.231337 -1.875,-1.613281 -0.76389,-0.381945 -1.68338,-0.574219 -2.75976,-0.574219 z M 33.453125,29.574219 c -1.284722,0 -2.370443,0.250434 -3.255859,0.753906 -0.868056,0.503472 -1.57921,1.164496 -2.134766,1.980469 -0.538194,0.815972 -0.928819,1.743489 -1.171875,2.785156 -0.243056,1.041667 -0.365234,2.101346 -0.365234,3.177734 0,2.30903 0.434678,3.983725 1.302734,5.025391 0.885417,1.024307 2.065321,1.537109 3.541016,1.537109 0.954861,0 1.770182,-0.190319 2.447265,-0.572265 0.677083,-0.399305 1.233941,-0.956163 1.667969,-1.667969 0.434028,-0.729167 0.762587,-1.588541 0.988281,-2.578125 0.225693,-1.006944 0.373914,-2.108724 0.44336,-3.306641 l 0.365234,-6.58789 c -0.486111,-0.138889 -1.069011,-0.261068 -1.746094,-0.365235 -0.659722,-0.121528 -1.352864,-0.18164 -2.082031,-0.18164 z m 67.681645,10.390625 -3.724614,0.18164 c -1.562499,0.06944 -2.872612,0.243705 -3.93164,0.521485 -1.059029,0.277777 -1.910374,0.668401 -2.552735,1.171875 -0.624998,0.48611 -1.075735,1.085069 -1.353515,1.796875 -0.277778,0.694443 -0.416016,1.483723 -0.416016,2.36914 0,1.597224 0.416665,2.769098 1.25,3.515625 0.850694,0.746528 1.960504,1.119138 3.332031,1.119141 1.059029,0 2.040582,-0.164281 2.94336,-0.494141 0.902778,-0.329862 1.684028,-0.824653 2.34375,-1.484375 0.659721,-0.677084 1.172529,-1.518446 1.537109,-2.52539 0.38194,-1.024305 0.57227,-2.222223 0.57227,-3.59375 z m 231.66601,0 -3.72266,0.18164 c -1.56249,0.06944 -2.87456,0.243705 -3.93359,0.521485 -1.05902,0.277777 -1.90842,0.668401 -2.55078,1.171875 -0.625,0.48611 -1.07769,1.085069 -1.35547,1.796875 -0.27778,0.694443 -0.41601,1.483723 -0.41601,2.36914 0,1.597224 0.41666,2.769098 1.25,3.515625 0.85069,0.746528 1.96245,1.119138 3.33398,1.119141 1.05903,0 2.03863,-0.164281 2.94141,-0.494141 0.90277,-0.329862 1.68402,-0.824653 2.34375,-1.484375 0.65972,-0.677084 1.17252,-1.518446 1.53711,-2.52539 0.38194,-1.024305 0.57226,-2.222223 0.57226,-3.59375 z M 141.89062,53.480469 c -0.60763,0 -1.24261,0.06815 -1.90234,0.207031 -0.65972,0.138885 -1.26671,0.399304 -1.82226,0.78125 -0.5382,0.381944 -0.98894,0.902776 -1.35352,1.5625 -0.34722,0.677082 -0.52148,1.544487 -0.52148,2.603516 v 0.002 c 0,0.642361 0.1122,1.241319 0.33789,1.796875 0.22568,0.555555 0.59027,1.032333 1.09375,1.43164 0.52083,0.399305 1.19791,0.711807 2.03125,0.9375 0.85069,0.243049 1.90234,0.365235 3.15234,0.365235 3.22917,0 5.64106,-0.504775 7.23828,-1.511719 1.61459,-0.989584 2.42188,-2.421874 2.42188,-4.296875 0,-0.798609 -0.10418,-1.449652 -0.3125,-1.953125 -0.20833,-0.503471 -0.5549,-0.902125 -1.04102,-1.197266 -0.46875,-0.277777 -1.09375,-0.468099 -1.875,-0.572265 -0.78125,-0.104164 -1.73676,-0.15625 -2.86523,-0.15625 z M 87.191406,75.371094 c 0.229166,0 0.442707,0.03646 0.640625,0.109375 0.208328,0.06249 0.385411,0.16666 0.53125,0.3125 0.156246,0.145839 0.276024,0.333339 0.359375,0.5625 0.09376,0.218759 0.140625,0.484383 0.140625,0.796875 0,0.604167 -0.166666,1.057292 -0.5,1.359375 -0.322918,0.291666 -0.713542,0.4375 -1.171875,0.4375 -0.468749,0 -0.864584,-0.145834 -1.1875,-0.4375 -0.312501,-0.291666 -0.46875,-0.744791 -0.46875,-1.359375 0,-0.625001 0.156249,-1.078125 0.46875,-1.359375 0.322916,-0.28125 0.718751,-0.421875 1.1875,-0.421875 z m 23.625004,0 c 0.22916,0 0.4427,0.03646 0.64062,0.109375 0.20833,0.06249 0.38541,0.16666 0.53125,0.3125 0.15625,0.145839 0.27605,0.333339 0.35938,0.5625 0.0937,0.218759 0.14062,0.484383 0.14062,0.796875 0,0.604167 -0.16666,1.057292 -0.5,1.359375 -0.32292,0.291666 -0.71354,0.4375 -1.17187,0.4375 -0.46875,0 -0.86459,-0.145834 -1.1875,-0.4375 -0.31251,-0.291666 -0.46875,-0.744791 -0.46875,-1.359375 0,-0.625001 0.15624,-1.078125 0.46875,-1.359375 0.32291,-0.28125 0.71875,-0.421875 1.1875,-0.421875 z m 22.4375,0 c 0.22916,0 0.44271,0.03646 0.64062,0.109375 0.20833,0.06249 0.38541,0.16666 0.53125,0.3125 0.15625,0.145839 0.27603,0.333339 0.35938,0.5625 0.0937,0.218759 0.14062,0.484383 0.14062,0.796875 0,0.604167 -0.16666,1.057292 -0.5,1.359375 -0.32291,0.291666 -0.71354,0.4375 -1.17187,0.4375 -0.46876,0 -0.86459,-0.145834 -1.1875,-0.4375 -0.31251,-0.291666 -0.46875,-0.744791 -0.46875,-1.359375 0,-0.625001 0.15624,-1.078125 0.46875,-1.359375 0.32291,-0.28125 0.71874,-0.421875 1.1875,-0.421875 z m 60.29687,0.404297 c 1.125,0 2.19792,0.114584 3.21875,0.34375 1.02084,0.229165 1.94271,0.562497 2.76563,1 l -1.21875,2.4375 c -0.65625,-0.333335 -1.36979,-0.619791 -2.14063,-0.859375 -0.77083,-0.239572 -1.64583,-0.357422 -2.625,-0.357422 -1.11458,0 -2.125,0.213543 -3.03125,0.640625 -0.90625,0.416667 -1.68229,1.020832 -2.32812,1.8125 -0.63542,0.791665 -1.13021,1.755207 -1.48438,2.890625 -0.34375,1.135415 -0.51562,2.416666 -0.51562,3.84375 0,1.468749 0.15104,2.77604 0.45312,3.921875 0.3125,1.135415 0.77604,2.093749 1.39063,2.875 0.61458,0.781248 1.3802,1.374998 2.29687,1.78125 0.91667,0.406249 1.98958,0.609375 3.21875,0.609375 0.92708,0 1.80729,-0.08854 2.64063,-0.265625 0.83333,-0.18749 1.65625,-0.401031 2.46875,-0.640625 v 2.53125 c -0.40625,0.156245 -0.8125,0.296871 -1.21875,0.421875 -0.40625,0.11457 -0.83334,0.206377 -1.28125,0.279297 -0.4375,0.07292 -0.91146,0.125006 -1.42188,0.15625 -0.5,0.04167 -1.05729,0.0625 -1.67187,0.0625 -1.70834,0 -3.1875,-0.281251 -4.4375,-0.84375 -1.25,-0.562502 -2.28646,-1.359376 -3.10938,-2.390625 -0.8125,-1.03125 -1.41667,-2.270834 -1.8125,-3.71875 -0.39583,-1.447917 -0.59375,-3.052085 -0.59375,-4.8125 0,-1.729167 0.22396,-3.3125 0.67188,-4.75 0.45833,-1.437501 1.125,-2.671876 2,-3.703125 0.88541,-1.031252 1.97916,-1.833334 3.28125,-2.40625 1.30208,-0.572916 2.79687,-0.859375 4.48437,-0.859375 z m 149.5625,0.002 c 1.23959,0 2.35417,0.11785 3.34375,0.357422 0.98958,0.229165 1.86979,0.527992 2.64063,0.892578 l -1.04688,2.4375 c -0.67708,-0.302083 -1.44791,-0.564452 -2.3125,-0.783203 -0.85416,-0.229166 -1.73958,-0.341797 -2.65625,-0.341797 -1.27083,0 -2.25521,0.294923 -2.95312,0.888672 -0.69792,0.583334 -1.04688,1.375002 -1.04688,2.375 0,0.593751 0.0781,1.111327 0.23438,1.548828 0.15624,0.427081 0.41666,0.815755 0.78125,1.169922 0.36458,0.34375 0.84375,0.673826 1.4375,0.986328 0.60416,0.302082 1.34375,0.624999 2.21875,0.96875 0.94791,0.374999 1.77604,0.758464 2.48437,1.154297 0.71875,0.395832 1.31771,0.843748 1.79688,1.34375 0.47916,0.499998 0.83854,1.080076 1.07812,1.736328 0.25,0.656249 0.375,1.432291 0.375,2.328125 0,1.010416 -0.18229,1.916666 -0.54687,2.71875 -0.35417,0.791665 -0.86459,1.463542 -1.53125,2.015625 -0.66667,0.552083 -1.47917,0.973956 -2.4375,1.265625 -0.95834,0.28125 -2.03646,0.421875 -3.23438,0.421875 -1.15625,0 -2.23958,-0.09376 -3.25,-0.28125 -1,-0.177084 -1.83854,-0.442708 -2.51562,-0.796875 v -2.78125 c 0.35416,0.166677 0.7552,0.333343 1.20312,0.5 0.45833,0.156245 0.9375,0.296871 1.4375,0.421875 0.5,0.125001 1.01563,0.229174 1.54688,0.3125 0.53124,0.07292 1.05729,0.109375 1.57812,0.109375 1.66667,0 2.89583,-0.3125 3.6875,-0.9375 0.80209,-0.624998 1.20313,-1.520833 1.20313,-2.6875 0,-0.5625 -0.0781,-1.052083 -0.23438,-1.46875 -0.14584,-0.416668 -0.41146,-0.796877 -0.79687,-1.140625 -0.375,-0.354167 -0.88021,-0.692707 -1.51563,-1.015625 -0.63542,-0.333332 -1.4375,-0.692707 -2.40625,-1.078125 -0.92708,-0.364584 -1.73437,-0.760419 -2.42187,-1.1875 -0.67709,-0.437501 -1.23959,-0.927083 -1.6875,-1.46875 -0.4375,-0.541667 -0.76563,-1.156249 -0.98438,-1.84375 -0.20833,-0.687499 -0.3125,-1.468749 -0.3125,-2.34375 0,-0.916667 0.16667,-1.734375 0.5,-2.453125 0.33333,-0.71875 0.80208,-1.322918 1.40625,-1.8125 0.60417,-0.499999 1.32292,-0.880208 2.15625,-1.140625 0.84375,-0.260417 1.77083,-0.390625 2.78125,-0.390625 z M 12.394531,76.105469 h 4.3125 l 6.4375,18.625 h 0.09375 l 6.46875,-18.625 h 4.3125 v 22.84375 h -2.90625 V 85.089844 c 0,-0.541667 0.01041,-1.161458 0.03125,-1.859375 0.02084,-0.697915 0.04688,-1.364584 0.07813,-2 0.04167,-0.739583 0.07813,-1.489582 0.109375,-2.25 h -0.125 l -6.984375,19.96875 h -2.390625 l -6.921875,-20 h -0.125 c 0.0625,0.770834 0.114585,1.536459 0.15625,2.296875 0.04167,0.656249 0.07292,1.348958 0.09375,2.078125 0.03125,0.71875 0.04687,1.375001 0.04687,1.96875 v 13.65625 h -2.6875 z m 277.046879,1.748047 h 1.64062 v 3.9375 h 4.3125 v 2.140625 h -4.3125 v 9.953125 c 0,1.010416 0.16146,1.770832 0.48438,2.28125 0.33333,0.510417 0.875,0.765625 1.625,0.765625 v 0.002 c 0.18749,0 0.39582,-0.01229 0.625,-0.0332 0.23957,-0.02091 0.46873,-0.04696 0.6875,-0.07813 0.21876,-0.03124 0.41667,-0.0677 0.59375,-0.109375 0.18749,-0.04168 0.32811,-0.07813 0.42187,-0.109375 v 2.15625 c -0.13541,0.06251 -0.30728,0.125011 -0.51562,0.1875 -0.20833,0.06251 -0.4375,0.114599 -0.6875,0.15625 -0.25001,0.05208 -0.51043,0.08854 -0.78125,0.109375 -0.27084,0.03124 -0.53646,0.04687 -0.79688,0.04687 -0.64583,0 -1.24479,-0.08332 -1.79687,-0.25 -0.55209,-0.166678 -1.03125,-0.453137 -1.4375,-0.859375 -0.39584,-0.406252 -0.70834,-0.953127 -0.9375,-1.640625 -0.22917,-0.697918 -0.34375,-1.572916 -0.34375,-2.625 v -9.953125 h -2.42188 v -1.265625 l 2.42188,-1.21875 z m 95.75,0 h 1.64062 v 3.9375 h 4.3125 v 2.140625 h -4.3125 v 9.953125 c 0,1.010416 0.16145,1.770832 0.48438,2.28125 0.33333,0.510417 0.87501,0.765625 1.625,0.765625 v 0.002 c 0.18746,0 0.39578,-0.01229 0.625,-0.0332 0.23962,-0.02091 0.46879,-0.04696 0.6875,-0.07813 0.2187,-0.03124 0.41661,-0.0677 0.59375,-0.109375 0.18746,-0.04168 0.32809,-0.07813 0.42187,-0.109375 v 2.15625 c -0.13531,0.06251 -0.30717,0.125011 -0.51562,0.1875 -0.20838,0.06251 -0.43755,0.114599 -0.6875,0.15625 -0.24996,0.05208 -0.51039,0.08854 -0.78125,0.109375 -0.27084,0.03124 -0.53647,0.04687 -0.79688,0.04687 -0.64584,0 -1.24479,-0.08332 -1.79687,-0.25 -0.55209,-0.166678 -1.03125,-0.453137 -1.4375,-0.859375 -0.39582,-0.406252 -0.70834,-0.953127 -0.9375,-1.640625 -0.22904,-0.697918 -0.34375,-1.572916 -0.34375,-2.625 v -9.953125 h -2.42188 v -1.265625 l 2.42188,-1.21875 z m -323.421879,3.625 c 1.010417,0 1.932292,0.111319 2.765625,0.330078 0.84375,0.218759 1.640626,0.505218 2.390625,0.859375 l -0.984375,2.296875 c -0.677082,-0.302083 -1.375,-0.562499 -2.09375,-0.78125 -0.708334,-0.229166 -1.432292,-0.34375 -2.171875,-0.34375 -1.062501,0 -1.84896,0.177083 -2.359375,0.53125 -0.510417,0.34375 -0.765625,0.838542 -0.765625,1.484375 0,0.364583 0.0573,0.682291 0.171875,0.953125 0.125002,0.270833 0.333334,0.526043 0.625,0.765625 0.291666,0.239597 0.682293,0.484387 1.171875,0.734375 0.489585,0.239571 1.098959,0.510407 1.828125,0.8125 0.75,0.312501 1.416668,0.625001 2,0.9375 0.593751,0.312501 1.098958,0.666667 1.515625,1.0625 0.416665,0.385416 0.734374,0.828123 0.953125,1.328125 0.218759,0.499998 0.328125,1.098957 0.328125,1.796875 0,0.833333 -0.151042,1.562499 -0.453125,2.1875 -0.302085,0.625 -0.739584,1.151041 -1.3125,1.578125 -0.562499,0.416665 -1.244791,0.729167 -2.046875,0.9375 -0.802084,0.208327 -1.703125,0.3125 -2.703125,0.3125 -1.135415,0 -2.109375,-0.09376 -2.921875,-0.28125 -0.8125,-0.177084 -1.526041,-0.442708 -2.140625,-0.796875 v -2.59375 c 0.322918,0.166677 0.682293,0.333343 1.078125,0.5 0.395833,0.156245 0.8125,0.296871 1.25,0.421875 0.437501,0.125001 0.885417,0.229174 1.34375,0.3125 0.46875,0.07292 0.932292,0.109375 1.390625,0.109375 0.677085,0 1.250001,-0.05923 1.71875,-0.173828 0.479166,-0.11457 0.864584,-0.27603 1.15625,-0.484375 0.302085,-0.218759 0.520835,-0.479175 0.65625,-0.78125 0.135408,-0.312499 0.203125,-0.654298 0.203125,-1.029297 0,-0.322918 -0.05209,-0.616536 -0.15625,-0.876953 -0.104164,-0.260417 -0.296872,-0.513674 -0.578125,-0.763672 -0.270833,-0.260417 -0.645834,-0.522786 -1.125,-0.783203 -0.479166,-0.260417 -1.093748,-0.552083 -1.84375,-0.875 -0.749999,-0.322916 -1.427085,-0.638673 -2.03125,-0.951172 -0.593751,-0.312502 -1.09896,-0.663412 -1.515625,-1.048828 -0.416667,-0.385416 -0.739582,-0.828124 -0.96875,-1.328125 -0.218759,-0.510415 -0.328125,-1.11263 -0.328125,-1.810547 0,-0.729167 0.140625,-1.375001 0.421875,-1.9375 0.291666,-0.572919 0.697916,-1.054037 1.21875,-1.439453 0.520834,-0.385416 1.145834,-0.675131 1.875,-0.873047 0.729167,-0.197922 1.541667,-0.298828 2.4375,-0.298828 z m 14.4375,0 c 1.010417,0 1.932292,0.111319 2.765625,0.330078 0.843752,0.218759 1.640626,0.505218 2.390625,0.859375 l -0.984375,2.296875 c -0.677084,-0.302083 -1.375,-0.562499 -2.09375,-0.78125 -0.708331,-0.229166 -1.432289,-0.34375 -2.171875,-0.34375 -1.062498,0 -1.848957,0.177083 -2.359375,0.53125 -0.510415,0.34375 -0.765625,0.838542 -0.765625,1.484375 0,0.364583 0.0573,0.682291 0.171875,0.953125 0.125002,0.270833 0.333337,0.526043 0.625,0.765625 0.291669,0.239597 0.682293,0.484387 1.171875,0.734375 0.489583,0.239571 1.098959,0.510407 1.828125,0.8125 0.750002,0.312501 1.416668,0.625001 2,0.9375 0.593749,0.312501 1.098958,0.666667 1.515625,1.0625 0.416668,0.385416 0.734376,0.828123 0.953125,1.328125 0.218759,0.499998 0.328125,1.098957 0.328125,1.796875 0,0.833333 -0.151042,1.562499 -0.453125,2.1875 -0.302082,0.625 -0.739584,1.151041 -1.3125,1.578125 -0.562502,0.416665 -1.244793,0.729167 -2.046875,0.9375 -0.802084,0.208327 -1.703125,0.3125 -2.703125,0.3125 -1.135418,0 -2.109375,-0.09376 -2.921875,-0.28125 -0.8125,-0.177084 -1.526043,-0.442708 -2.140625,-0.796875 v -2.59375 c 0.322916,0.166677 0.68229,0.333343 1.078125,0.5 0.395833,0.156245 0.8125,0.296871 1.25,0.421875 0.437501,0.125001 0.885417,0.229174 1.34375,0.3125 0.46875,0.07292 0.932292,0.109375 1.390625,0.109375 0.677082,0 1.250001,-0.05923 1.71875,-0.173828 0.479169,-0.11457 0.864584,-0.27603 1.15625,-0.484375 0.302083,-0.218759 0.520832,-0.479175 0.65625,-0.78125 0.135408,-0.312499 0.203125,-0.654298 0.203125,-1.029297 0,-0.322918 -0.05209,-0.616536 -0.15625,-0.876953 -0.104164,-0.260417 -0.296872,-0.513674 -0.578125,-0.763672 -0.270833,-0.260417 -0.645831,-0.522786 -1.125,-0.783203 -0.479166,-0.260417 -1.09375,-0.552083 -1.84375,-0.875 -0.749999,-0.322916 -1.427082,-0.638673 -2.03125,-0.951172 -0.593748,-0.312502 -1.098957,-0.663412 -1.515625,-1.048828 -0.416667,-0.385416 -0.739584,-0.828124 -0.96875,-1.328125 -0.218759,-0.510415 -0.328125,-1.11263 -0.328125,-1.810547 0,-0.729167 0.140625,-1.375001 0.421875,-1.9375 0.291666,-0.572919 0.697916,-1.054037 1.21875,-1.439453 0.520832,-0.385416 1.145834,-0.675131 1.875,-0.873047 0.729167,-0.197922 1.541667,-0.298828 2.4375,-0.298828 z m 88.109379,0 c 0.38541,0 0.78125,0.03126 1.1875,0.09375 0.41666,0.05208 0.76562,0.124992 1.04687,0.21875 l 5.67188,0.002 v 1.765625 l -3.07813,0.421875 c 0.29167,0.364583 0.53646,0.833334 0.73438,1.40625 0.19792,0.562499 0.29687,1.203125 0.29687,1.921875 0,0.791667 -0.125,1.526043 -0.375,2.203125 -0.23957,0.666668 -0.60936,1.244792 -1.10937,1.734375 -0.48959,0.489582 -1.09896,0.874997 -1.82813,1.15625 -0.72917,0.270831 -1.57812,0.40625 -2.54687,0.40625 h -0.6875 c -0.22917,-0.01033 -0.41667,-0.03311 -0.5625,-0.06445 -0.17709,0.104163 -0.35417,0.225895 -0.53125,0.361328 -0.16668,0.125001 -0.32293,0.270835 -0.46875,0.4375 -0.13541,0.166677 -0.25,0.354177 -0.34375,0.5625 -0.0833,0.208327 -0.125,0.437494 -0.125,0.6875 0,0.28125 0.0625,0.510416 0.1875,0.6875 0.125,0.166677 0.29167,0.296885 0.5,0.390625 0.21876,0.09376 0.47396,0.156256 0.76562,0.1875 0.29167,0.03124 0.59896,0.04687 0.92188,0.04687 h 2.75 c 0.96875,0 1.78646,0.124997 2.45312,0.375 0.66667,0.239571 1.20833,0.567694 1.625,0.984375 0.42709,0.416665 0.73438,0.911459 0.92188,1.484375 0.18749,0.562502 0.28125,1.161466 0.28125,1.796866 0,0.91667 -0.17188,1.7396 -0.51563,2.46875 -0.33333,0.72917 -0.84896,1.34377 -1.54687,1.84375 -0.69792,0.51042 -1.58334,0.90105 -2.65625,1.17188 -1.0625,0.27084 -2.31771,0.40625 -3.76563,0.40625 -1.11458,0 -2.08854,-0.11132 -2.92187,-0.33007 -0.83334,-0.21876 -1.52605,-0.53647 -2.07813,-0.95312 -0.55208,-0.41667 -0.96875,-0.92188 -1.25,-1.51563 -0.27083,-0.58334 -0.40625,-1.24479 -0.40625,-1.98437 0,-0.625 0.099,-1.1771 0.29688,-1.65625 0.20832,-0.468762 0.48437,-0.875011 0.82812,-1.218759 0.34375,-0.343751 0.73958,-0.624999 1.1875,-0.84375 0.45833,-0.218759 0.93229,-0.385428 1.42188,-0.5 -0.4375,-0.197922 -0.79688,-0.510421 -1.07813,-0.9375 -0.28125,-0.427084 -0.42187,-0.916667 -0.42187,-1.46875 0,-0.635417 0.16666,-1.182292 0.5,-1.640625 0.33333,-0.46875 0.85937,-0.921875 1.57812,-1.359375 -0.44792,-0.18749 -0.85937,-0.4427 -1.23437,-0.765625 -0.36459,-0.333335 -0.67709,-0.708333 -0.9375,-1.125 -0.25001,-0.427082 -0.44792,-0.890624 -0.59375,-1.390625 -0.13541,-0.499999 -0.20313,-1.015625 -0.20313,-1.546875 0,-0.927083 0.13021,-1.755209 0.39063,-2.484375 0.26041,-0.729167 0.64583,-1.348958 1.15625,-1.859375 0.51041,-0.510415 1.14583,-0.901042 1.90625,-1.171875 0.76041,-0.270834 1.64583,-0.40625 2.65625,-0.40625 z m 209.89062,0 c 1.01042,0 1.93229,0.111319 2.76563,0.330078 0.84373,0.218759 1.64061,0.505218 2.39062,0.859375 l -0.98437,2.296875 c -0.67707,-0.302083 -1.375,-0.562499 -2.09375,-0.78125 -0.70834,-0.229166 -1.4323,-0.34375 -2.17188,-0.34375 -1.0625,0 -1.84896,0.177083 -2.35937,0.53125 -0.51042,0.34375 -0.76563,0.838542 -0.76563,1.484375 0,0.364583 0.0573,0.682291 0.17188,0.953125 0.125,0.270833 0.33333,0.526043 0.625,0.765625 0.29166,0.239597 0.68229,0.484387 1.17187,0.734375 0.48958,0.239571 1.09896,0.510407 1.82813,0.8125 0.75,0.312501 1.41666,0.625001 2,0.9375 0.59375,0.312501 1.09896,0.666667 1.51562,1.0625 0.41668,0.385416 0.73439,0.828123 0.95313,1.328125 0.2187,0.499998 0.32812,1.098957 0.32812,1.796875 0,0.833333 -0.15104,1.562499 -0.45312,2.1875 -0.30209,0.625 -0.73959,1.151041 -1.3125,1.578125 -0.56251,0.416665 -1.2448,0.729167 -2.04688,0.9375 -0.80208,0.208327 -1.70312,0.310547 -2.70312,0.310547 -1.13542,0 -2.10938,-0.09181 -2.92188,-0.279297 -0.8125,-0.177084 -1.52604,-0.442708 -2.14062,-0.796875 v -2.59375 c 0.32291,0.166677 0.68229,0.333343 1.07812,0.5 0.39583,0.156245 0.8125,0.296871 1.25,0.421875 0.4375,0.125001 0.88542,0.227221 1.34375,0.310547 0.46875,0.07292 0.93229,0.111328 1.39063,0.111328 0.67708,0 1.25,-0.05923 1.71875,-0.173828 0.47916,-0.11457 0.86458,-0.27603 1.15625,-0.484375 0.30208,-0.218759 0.52083,-0.479175 0.65625,-0.78125 0.1354,-0.312499 0.20312,-0.656251 0.20312,-1.03125 0,-0.322918 -0.0521,-0.614583 -0.15625,-0.875 -0.10416,-0.260417 -0.29687,-0.515627 -0.57812,-0.765625 -0.27084,-0.260417 -0.64584,-0.520833 -1.125,-0.78125 -0.47917,-0.260417 -1.09375,-0.552083 -1.84375,-0.875 -0.75,-0.322916 -1.42709,-0.640626 -2.03125,-0.953125 -0.59375,-0.312494 -1.09896,-0.661459 -1.51563,-1.046875 -0.41666,-0.385416 -0.73958,-0.828124 -0.96875,-1.328125 -0.21876,-0.510415 -0.32812,-1.11263 -0.32812,-1.810547 0,-0.729167 0.14062,-1.375001 0.42187,-1.9375 0.29167,-0.572919 0.69792,-1.054037 1.21875,-1.439453 0.52083,-0.385416 1.14583,-0.675131 1.875,-0.873047 0.72917,-0.197922 1.54167,-0.298828 2.4375,-0.298828 z m 71.125,0 c 1.01042,0 1.93229,0.111319 2.76563,0.330078 0.84374,0.218759 1.64061,0.505218 2.39062,0.859375 l -0.98437,2.296875 c -0.67709,-0.302083 -1.37501,-0.562499 -2.09375,-0.78125 -0.70834,-0.229166 -1.4323,-0.34375 -2.17188,-0.34375 -1.0625,0 -1.84896,0.177083 -2.35937,0.53125 -0.51044,0.34375 -0.76563,0.838542 -0.76563,1.484375 0,0.364583 0.0572,0.682291 0.17188,0.953125 0.12497,0.270833 0.33332,0.526043 0.625,0.765625 0.29167,0.239597 0.6823,0.484387 1.17187,0.734375 0.4896,0.239571 1.09898,0.510407 1.82813,0.8125 0.75001,0.312501 1.41666,0.625001 2,0.9375 0.59376,0.312501 1.09897,0.666667 1.51562,1.0625 0.41666,0.385416 0.73437,0.828123 0.95313,1.328125 0.2187,0.499998 0.32812,1.098957 0.32812,1.796875 0,0.833333 -0.15104,1.562499 -0.45312,2.1875 -0.30209,0.625 -0.73958,1.151041 -1.3125,1.578125 -0.5625,0.416665 -1.24479,0.729167 -2.04688,0.9375 -0.80206,0.208327 -1.70311,0.3125 -2.70312,0.3125 -1.13542,0 -2.10938,-0.09376 -2.92188,-0.28125 -0.8125,-0.177084 -1.52605,-0.442708 -2.14062,-0.796875 v -2.59375 c 0.32292,0.166677 0.6823,0.333343 1.07812,0.5 0.39584,0.156245 0.81251,0.296871 1.25,0.421875 0.43749,0.125001 0.8854,0.229174 1.34375,0.3125 0.46874,0.07292 0.9323,0.109375 1.39063,0.109375 0.67709,0 1.25001,-0.05923 1.71875,-0.173828 0.47916,-0.11457 0.86457,-0.27603 1.15625,-0.484375 0.30208,-0.218759 0.52084,-0.479175 0.65625,-0.78125 0.13556,-0.312499 0.20312,-0.654298 0.20312,-1.029297 0,-0.322918 -0.0519,-0.616536 -0.15625,-0.876953 -0.10406,-0.260417 -0.29678,-0.513674 -0.57812,-0.763672 -0.27084,-0.260417 -0.64586,-0.522786 -1.125,-0.783203 -0.47917,-0.260417 -1.09374,-0.552083 -1.84375,-0.875 -0.75001,-0.322916 -1.42711,-0.638673 -2.03125,-0.951172 -0.59377,-0.312502 -1.09897,-0.663412 -1.51563,-1.048828 -0.41668,-0.385416 -0.73958,-0.828124 -0.96875,-1.328125 -0.21871,-0.510415 -0.32812,-1.11263 -0.32812,-1.810547 0,-0.729167 0.1406,-1.375001 0.42187,-1.9375 0.29165,-0.572919 0.69791,-1.054037 1.21875,-1.439453 0.52082,-0.385416 1.14583,-0.675131 1.875,-0.873047 0.72917,-0.197922 1.54168,-0.298828 2.4375,-0.298828 z m -399.921874,0.002 c 1.062499,0 1.979166,0.109366 2.75,0.328125 0.781249,0.208327 1.421874,0.54687 1.921875,1.015625 0.510415,0.458333 0.890625,1.046875 1.140625,1.765625 0.250003,0.71875 0.375,1.588542 0.375,2.609375 v 11.75 h -2.046875 l -0.578125,-2.375 h -0.125 c -0.34375,0.468749 -0.687499,0.874999 -1.03125,1.21875 -0.34375,0.333334 -0.718751,0.609376 -1.125,0.828125 -0.406249,0.218759 -0.859373,0.380216 -1.359375,0.484375 -0.499998,0.104164 -1.078123,0.15625 -1.734375,0.15625 -0.71875,0 -1.38021,-0.104173 -1.984375,-0.3125 -0.604167,-0.197922 -1.130208,-0.505215 -1.578125,-0.921875 -0.4375,-0.427084 -0.781252,-0.958334 -1.03125,-1.59375 -0.250003,-0.645833 -0.375,-1.406249 -0.375,-2.28125 0,-1.708332 0.598959,-3.020834 1.796875,-3.9375 1.208333,-0.916669 3.041667,-1.416669 5.5,-1.5 l 2.875,-0.109375 v -1.078125 c 0,-0.697918 -0.07813,-1.281251 -0.234375,-1.75 -0.145839,-0.46875 -0.364589,-0.84375 -0.65625,-1.125 -0.28125,-0.291666 -0.635416,-0.499999 -1.0625,-0.625 -0.416665,-0.125002 -0.895833,-0.1875 -1.4375,-0.1875 -0.864584,0 -1.671875,0.124997 -2.421875,0.375 -0.739583,0.250003 -1.453124,0.552088 -2.140625,0.90625 l -1,-2.140625 c 0.770832,-0.416668 1.630207,-0.770834 2.578125,-1.0625 0.947916,-0.291666 1.942707,-0.4375 2.984375,-0.4375 z m 102.531254,0 c 1.90625,0 3.33854,0.5 4.29687,1.5 0.96875,0.989581 1.45313,2.578125 1.45313,4.765625 v 11.203125 h -2.84375 V 87.902344 c 0,-1.354167 -0.27605,-2.369791 -0.82813,-3.046875 -0.54167,-0.677082 -1.39583,-1.015625 -2.5625,-1.015625 -0.84375,0 -1.55208,0.135416 -2.125,0.40625 -0.57292,0.270833 -1.03646,0.671874 -1.39062,1.203125 -0.34375,0.531248 -0.59375,1.18229 -0.75,1.953125 -0.14584,0.770832 -0.21875,1.65625 -0.21875,2.65625 v 8.890625 h -2.84375 v -17.15625 h 2.3125 l 0.40625,2.3125 h 0.15625 c 0.26041,-0.447917 0.5677,-0.833332 0.92187,-1.15625 0.36458,-0.333332 0.76042,-0.609374 1.1875,-0.828125 0.42709,-0.218759 0.88021,-0.380219 1.35938,-0.484375 0.47916,-0.104164 0.96874,-0.15625 1.46875,-0.15625 z m 61.8125,0 c 1.07291,0 2.0625,0.197917 2.96875,0.59375 0.90625,0.385416 1.6875,0.958334 2.34375,1.71875 0.66666,0.750002 1.18229,1.677083 1.54687,2.78125 0.375,1.09375 0.5625,2.34896 0.5625,3.765625 0,1.427084 -0.17708,2.697917 -0.53125,3.8125 -0.34375,1.104166 -0.84375,2.036456 -1.5,2.796875 -0.64583,0.749999 -1.43229,1.322917 -2.35937,1.71875 -0.92709,0.395835 -1.96876,0.59375 -3.125,0.59375 -1.07292,0 -2.0625,-0.197915 -2.96875,-0.59375 -0.90625,-0.395833 -1.69271,-0.968751 -2.35938,-1.71875 -0.65625,-0.760419 -1.17187,-1.692709 -1.54687,-2.796875 -0.36459,-1.114583 -0.54688,-2.385416 -0.54688,-3.8125 0,-1.416665 0.17188,-2.671875 0.51563,-3.765625 0.35416,-1.104167 0.85416,-2.031248 1.5,-2.78125 0.64583,-0.760416 1.43229,-1.333334 2.35937,-1.71875 0.9375,-0.395833 1.98438,-0.59375 3.14063,-0.59375 z m 19.5625,0 c 1.25,0 2.28645,0.229167 3.10937,0.6875 0.83333,0.458333 1.44792,1.177085 1.84375,2.15625 h 0.125 c 0.27083,-0.489583 0.59375,-0.911458 0.96875,-1.265625 0.38542,-0.354167 0.80208,-0.645835 1.25,-0.875 0.45833,-0.239597 0.9375,-0.41668 1.4375,-0.53125 0.5,-0.11457 1.01042,-0.171875 1.53125,-0.171875 1.82292,0 3.19271,0.5 4.10938,1.5 0.92708,0.989581 1.39062,2.578125 1.39062,4.765625 v 11.203125 h -2.84375 V 87.902344 c 0,-1.354167 -0.26041,-2.369791 -0.78125,-3.046875 -0.52083,-0.677082 -1.32812,-1.015625 -2.42187,-1.015625 -0.76042,0 -1.40625,0.124997 -1.9375,0.375 -0.53125,0.239571 -0.96875,0.598949 -1.3125,1.078125 -0.33334,0.468752 -0.57813,1.057293 -0.73438,1.765625 -0.15624,0.697917 -0.23437,1.505208 -0.23437,2.421875 v 9.46875 h -2.85938 V 87.902344 c 0,-1.354167 -0.26041,-2.369791 -0.78125,-3.046875 -0.51042,-0.677082 -1.3125,-1.015625 -2.40625,-1.015625 -0.80208,0 -1.47396,0.135416 -2.01562,0.40625 -0.54167,0.270833 -0.97917,0.671874 -1.3125,1.203125 -0.32292,0.531248 -0.55729,1.18229 -0.70313,1.953125 -0.13541,0.770832 -0.20312,1.65625 -0.20312,2.65625 v 8.890625 h -2.84375 v -17.15625 h 2.3125 l 0.40625,2.3125 h 0.15625 c 0.25,-0.447917 0.54688,-0.833332 0.89062,-1.15625 0.34375,-0.333332 0.71875,-0.609374 1.125,-0.828125 0.41667,-0.218759 0.85417,-0.380219 1.3125,-0.484375 0.46875,-0.104164 0.94271,-0.15625 1.42188,-0.15625 z m 28.8125,0 c 0.97916,0 1.86979,0.1875 2.67187,0.5625 0.80209,0.374999 1.48438,0.9375 2.04688,1.6875 0.57291,0.739583 1.01562,1.661458 1.32812,2.765625 0.3125,1.104166 0.46875,2.385417 0.46875,3.84375 0,1.468752 -0.15625,2.760417 -0.46875,3.875 -0.3125,1.104166 -0.75521,2.03125 -1.32812,2.78125 -0.5625,0.749999 -1.24479,1.317706 -2.04688,1.703125 -0.80208,0.374999 -1.69271,0.5625 -2.67187,0.5625 -0.61459,0 -1.17188,-0.06772 -1.67188,-0.203125 -0.5,-0.135408 -0.95312,-0.312491 -1.35937,-0.53125 -0.39584,-0.229166 -0.75,-0.494793 -1.0625,-0.796875 -0.30209,-0.302085 -0.57292,-0.619794 -0.8125,-0.953125 h -0.1875 c 0.0312,0.354164 0.0625,0.692707 0.0937,1.015625 0.0209,0.270833 0.0417,0.552084 0.0625,0.84375 0.0209,0.28125 0.0312,0.505208 0.0312,0.671875 v 7.328129 h -2.84375 V 81.792969 h 2.3125 l 0.40625,2.3125 h 0.125 c 0.23957,-0.364584 0.5104,-0.703124 0.8125,-1.015625 0.30208,-0.322916 0.65104,-0.598957 1.04687,-0.828125 0.40625,-0.239572 0.85937,-0.427072 1.35938,-0.5625 0.49999,-0.14584 1.0625,-0.21875 1.6875,-0.21875 z m 46.89062,0 c 1.03125,0 1.95833,0.1875 2.78125,0.5625 0.82292,0.364583 1.52084,0.885418 2.09375,1.5625 0.57292,0.666666 1.01042,1.473957 1.3125,2.421875 0.3125,0.937499 0.46875,1.979165 0.46875,3.125 v 1.765625 h -10.8125 c 0.0521,2.010416 0.47396,3.489584 1.26563,4.4375 0.80208,0.947918 1.98958,1.421875 3.5625,1.421875 0.53125,0 1.02083,-0.02604 1.46875,-0.07813 0.45833,-0.05208 0.89583,-0.124993 1.3125,-0.21875 0.42708,-0.104164 0.83854,-0.229161 1.23437,-0.375 0.39583,-0.156246 0.79688,-0.32812 1.20313,-0.515625 v 2.53125 c -0.41667,0.197921 -0.82813,0.369795 -1.23438,0.515625 -0.39583,0.145839 -0.80729,0.263689 -1.23437,0.357422 -0.41667,0.09376 -0.85417,0.161474 -1.3125,0.203125 -0.44792,0.04167 -0.9375,0.0625 -1.46875,0.0625 v 0.002 c -1.14584,0 -2.19271,-0.192707 -3.14063,-0.578125 -0.94791,-0.385416 -1.76562,-0.947917 -2.45312,-1.6875 -0.67709,-0.739583 -1.20313,-1.65625 -1.57813,-2.75 -0.375,-1.09375 -0.5625,-2.343751 -0.5625,-3.75 0,-1.416668 0.17188,-2.682293 0.51563,-3.796875 0.34375,-1.114583 0.82812,-2.057291 1.45312,-2.828125 0.625,-0.781251 1.36979,-1.375001 2.23438,-1.78125 0.875,-0.406249 1.83854,-0.609375 2.89062,-0.609375 z m 18.40625,0 c 0.30209,0 0.64063,0.01563 1.01563,0.04687 0.375,0.02091 0.69791,0.05737 0.96875,0.109375 l -0.375,2.625 c -0.29167,-0.05208 -0.59375,-0.09376 -0.90625,-0.125 -0.30209,-0.04168 -0.58855,-0.0625 -0.85938,-0.0625 -0.65625,0 -1.25521,0.135416 -1.79687,0.40625 -0.54167,0.260414 -1.01042,0.640623 -1.40625,1.140625 -0.38542,0.489582 -0.6875,1.083332 -0.90625,1.78125 -0.20833,0.687498 -0.3125,1.453123 -0.3125,2.296875 v 9.25 h -2.84375 v -17.15625 h 2.3125 l 0.34375,3.140625 h 0.125 c 0.26041,-0.447917 0.53646,-0.880208 0.82812,-1.296875 0.30209,-0.416665 0.63542,-0.781249 1,-1.09375 0.375,-0.322916 0.79167,-0.578125 1.25,-0.765625 0.45833,-0.197922 0.97917,-0.296875 1.5625,-0.296875 z m 77.34375,0 c 1.03126,0 1.95835,0.1875 2.78125,0.5625 0.82293,0.364583 1.52085,0.885418 2.09375,1.5625 0.57293,0.666666 1.01042,1.473957 1.3125,2.421875 0.31249,0.937499 0.46875,1.979165 0.46875,3.125 v 1.765625 h -10.8125 c 0.0522,2.010416 0.47402,3.489584 1.26563,4.4375 0.80206,0.947918 1.98958,1.421875 3.5625,1.421875 0.53125,0 1.02082,-0.02604 1.46875,-0.07813 0.45833,-0.05208 0.89582,-0.126946 1.3125,-0.220703 0.42708,-0.104164 0.83855,-0.229161 1.23437,-0.375 0.39584,-0.156246 0.79688,-0.32812 1.20313,-0.515625 v 2.53125 c -0.41668,0.197921 -0.82813,0.369795 -1.23438,0.515625 -0.39582,0.145839 -0.80729,0.265642 -1.23437,0.359375 -0.41668,0.09376 -0.85417,0.161474 -1.3125,0.203125 -0.4479,0.04167 -0.9375,0.0625 -1.46875,0.0625 v 0.002 c -1.14586,0 -2.19272,-0.192707 -3.14063,-0.578125 -0.9479,-0.385416 -1.7656,-0.947917 -2.45312,-1.6875 -0.67707,-0.739583 -1.20312,-1.65625 -1.57813,-2.75 -0.375,-1.09375 -0.5625,-2.343751 -0.5625,-3.75 0,-1.416668 0.17187,-2.682293 0.51563,-3.796875 0.34373,-1.114583 0.82811,-2.057291 1.45312,-2.828125 0.62501,-0.781251 1.3698,-1.375001 2.23438,-1.78125 0.87498,-0.406249 1.83853,-0.609375 2.89062,-0.609375 z m 18.60938,0 c 1.24999,0 2.28644,0.229167 3.10937,0.6875 0.83334,0.458333 1.44793,1.177085 1.84375,2.15625 h 0.125 c 0.27082,-0.489583 0.59375,-0.911458 0.96875,-1.265625 0.38541,-0.354167 0.80208,-0.645835 1.25,-0.875 0.45833,-0.239597 0.93749,-0.41668 1.4375,-0.53125 0.50001,-0.11457 1.01043,-0.171875 1.53125,-0.171875 1.82292,0 3.19271,0.5 4.10938,1.5 0.92709,0.989581 1.39062,2.578125 1.39062,4.765625 v 11.203125 h -2.84375 V 87.902344 c 0,-1.354167 -0.26043,-2.369791 -0.78125,-3.046875 -0.52084,-0.677082 -1.32813,-1.015625 -2.42187,-1.015625 -0.76042,0 -1.40625,0.124997 -1.9375,0.375 -0.53125,0.239571 -0.96874,0.598949 -1.3125,1.078125 -0.33333,0.468752 -0.57813,1.057293 -0.73438,1.765625 -0.15622,0.697917 -0.23437,1.505208 -0.23437,2.421875 v 9.46875 h -2.85938 V 87.902344 c 0,-1.354167 -0.26043,-2.369791 -0.78125,-3.046875 -0.51041,-0.677082 -1.3125,-1.015625 -2.40625,-1.015625 -0.80209,0 -1.47394,0.135416 -2.01562,0.40625 -0.54166,0.270833 -0.97917,0.671874 -1.3125,1.203125 -0.32293,0.531248 -0.55729,1.18229 -0.70313,1.953125 -0.13531,0.770832 -0.20312,1.65625 -0.20312,2.65625 v 8.890625 h -2.84375 v -17.15625 h 2.3125 l 0.40625,2.3125 h 0.15625 c 0.24995,-0.447917 0.54684,-0.833332 0.89062,-1.15625 0.34376,-0.333332 0.71875,-0.609374 1.125,-0.828125 0.41666,-0.218759 0.85415,-0.380219 1.3125,-0.484375 0.46874,-0.104164 0.94271,-0.15625 1.42188,-0.15625 z m -150.40625,0.310547 h 2.84375 v 11.046875 c 0,1.354167 0.27604,2.369792 0.82812,3.046875 0.55208,0.677082 1.40625,1.015625 2.5625,1.015625 0.84375,0 1.55209,-0.135417 2.125,-0.40625 0.57292,-0.270831 1.03125,-0.666666 1.375,-1.1875 0.35417,-0.531251 0.60417,-1.182291 0.75,-1.953125 0.15625,-0.770833 0.23438,-1.65625 0.23438,-2.65625 v -8.90625 h 2.84375 v 17.15625 l -2.29688,0.002 -0.42187,-2.296875 h -0.15625 c -0.26042,0.447917 -0.57292,0.838543 -0.9375,1.171875 -0.35417,0.322918 -0.74479,0.593751 -1.17188,0.8125 -0.42708,0.208327 -0.88021,0.364576 -1.35937,0.46875 -0.47917,0.104164 -0.96875,0.15625 -1.46875,0.15625 -0.94792,0 -1.78125,-0.121732 -2.5,-0.361328 -0.71875,-0.239572 -1.31771,-0.614573 -1.79688,-1.125 -0.47917,-0.510418 -0.84375,-1.16146 -1.09375,-1.953125 -0.23957,-0.791668 -0.35937,-1.734375 -0.35937,-2.828125 z m -183.218754,0.002 h 2.84375 v 17.15625 h -2.84375 z m 5.59375,0 h 2.9375 l 3.109375,9.546875 c 0.11457,0.34375 0.249987,0.78646 0.40625,1.328125 0.156246,0.541667 0.312497,1.093748 0.46875,1.65625 0.156246,0.562499 0.296871,1.093751 0.421875,1.59375 0.135408,0.500001 0.22395,0.880208 0.265625,1.140625 h 0.109375 c 0.05208,-0.260417 0.140624,-0.640624 0.265625,-1.140625 0.125002,-0.499999 0.265627,-1.031251 0.421875,-1.59375 0.156246,-0.562502 0.312494,-1.114583 0.468754,-1.65625 0.15624,-0.541665 0.29166,-0.984375 0.40625,-1.328125 l 3.10937,-9.546875 h 2.9375 l -5.85937,17.15625 h -3.609379 z m 18.031254,0 h 2.84375 v 17.15625 h -2.84375 z m 7.39062,0 h 10.75 v 2.28125 l -8.1875,12.734375 h 8.46875 v 2.140625 h -11.54687 v -1.953125 l 8.375,-13.0625 h -7.85938 z m 15.04688,0 h 2.84375 v 17.15625 h -2.84375 z m 219.3125,0 h 2.95312 l 3.35938,9.578125 c 0.14584,0.416667 0.29167,0.854167 0.4375,1.3125 0.15624,0.458333 0.29687,0.916667 0.42187,1.375 0.13541,0.458333 0.24999,0.901043 0.34375,1.328125 0.0938,0.427084 0.16148,0.822916 0.20313,1.1875 h 0.0937 c 0.0521,-0.260417 0.1354,-0.614583 0.25,-1.0625 0.11457,-0.447917 0.23956,-0.921877 0.375,-1.421875 0.14584,-0.510418 0.29167,-1.010418 0.4375,-1.5 0.15624,-0.489583 0.29166,-0.90625 0.40625,-1.25 l 3.10937,-9.546875 h 2.9375 l -6.78125,19.390617 c -0.29166,0.84375 -0.60937,1.59896 -0.95312,2.26563 -0.33334,0.67708 -0.72396,1.25 -1.17188,1.71875 -0.44792,0.46875 -0.97396,0.82812 -1.57812,1.07812 -0.60417,0.26042 -1.32292,0.39063 -2.15625,0.39063 -0.54167,0 -1.01042,-0.0332 -1.40625,-0.0957 -0.39584,-0.0521 -0.73438,-0.10744 -1.01563,-0.16993 v -2.26562 c 0.21876,0.0521 0.4948,0.0918 0.82813,0.12305 0.33333,0.0417 0.68229,0.0644 1.04687,0.0644 0.5,0 0.93229,-0.0625 1.29688,-0.1875 0.36458,-0.11457 0.68229,-0.28645 0.95312,-0.51563 0.27083,-0.22916 0.5,-0.51041 0.6875,-0.84375 0.19792,-0.33333 0.37501,-0.71354 0.53125,-1.14062 l 0.89063,-2.499997 z m -186.9375,1.734375 c -1.03125,0 -1.82292,0.312502 -2.375,0.9375 -0.55209,0.625 -0.82813,1.572916 -0.82813,2.84375 0,1.197916 0.28125,2.08854 0.84375,2.671875 0.5625,0.583332 1.35937,0.875 2.39063,0.875 1.04166,0 1.82812,-0.286459 2.35937,-0.859375 0.54167,-0.583335 0.8125,-1.494794 0.8125,-2.734375 0,-1.28125 -0.27604,-2.223958 -0.82812,-2.828125 -0.54167,-0.604165 -1.33334,-0.90625 -2.375,-0.90625 z m 93.39062,0.310547 v 0.002 c -0.79166,0 -1.46354,0.11785 -2.01562,0.357422 -0.54167,0.239596 -0.98438,0.60418 -1.32813,1.09375 -0.33333,0.489585 -0.58333,1.098958 -0.75,1.828125 -0.15624,0.729166 -0.24479,1.588541 -0.26562,2.578125 v 0.640625 c 0,1.052084 0.0677,1.989583 0.20312,2.8125 0.14584,0.8125 0.38542,1.5 0.71875,2.0625 0.34375,0.552083 0.79688,0.973958 1.35938,1.265625 0.5625,0.281249 1.26562,0.421875 2.10937,0.421875 1.40625,0 2.4375,-0.56771 3.09375,-1.703125 0.66667,-1.135416 1,-2.765624 1,-4.890625 0,-2.166667 -0.33333,-3.786461 -1,-4.859375 -0.65625,-1.072918 -1.69791,-1.609375 -3.125,-1.609375 z m -47.89062,0.002 c -1.60417,0 -2.76042,0.541666 -3.46875,1.625 -0.69792,1.072917 -1.04688,2.697919 -1.04688,4.875 0,2.177083 0.35417,3.817708 1.0625,4.921875 0.71875,1.09375 1.88021,1.640625 3.48438,1.640625 1.60416,0 2.75521,-0.546875 3.45312,-1.640625 0.70834,-1.104167 1.0625,-2.744792 1.0625,-4.921875 0,-2.177081 -0.35937,-3.802083 -1.07812,-4.875 -0.70834,-1.083334 -1.86459,-1.625 -3.46875,-1.625 z m 95.26562,0 c -1.1875,0 -2.13021,0.40625 -2.82812,1.21875 -0.6875,0.8125 -1.08854,1.994792 -1.20313,3.546875 h 7.6875 c 0,-0.708334 -0.0729,-1.354168 -0.21875,-1.9375 -0.13541,-0.593751 -0.35416,-1.098958 -0.65625,-1.515625 -0.29166,-0.416665 -0.66667,-0.739582 -1.125,-0.96875 -0.45833,-0.229166 -1.01042,-0.34375 -1.65625,-0.34375 z m 95.75,0 c -1.1875,0 -2.13022,0.40625 -2.82812,1.21875 -0.6875,0.8125 -1.08853,1.994792 -1.20313,3.546875 h 7.6875 c 0,-0.708334 -0.0729,-1.354168 -0.21875,-1.9375 -0.13531,-0.593751 -0.35404,-1.098958 -0.65625,-1.515625 -0.29165,-0.416665 -0.66667,-0.739582 -1.125,-0.96875 -0.45833,-0.229166 -1.0104,-0.34375 -1.65625,-0.34375 z m -351.937499,6.71875 -2.234375,0.109375 c -0.937499,0.04167 -1.723958,0.145848 -2.359375,0.3125 -0.635416,0.166677 -1.145831,0.401052 -1.53125,0.703125 -0.374999,0.291666 -0.645833,0.651041 -0.8125,1.078125 -0.166677,0.416667 -0.25,0.890624 -0.25,1.421875 0,0.958332 0.250002,1.661458 0.75,2.109375 0.510418,0.447917 1.177084,0.671875 2,0.671875 0.635417,0 1.223958,-0.09895 1.765625,-0.296875 0.541667,-0.197922 1.010418,-0.494795 1.40625,-0.890625 0.395833,-0.406249 0.703124,-0.911458 0.921875,-1.515625 0.229166,-0.614584 0.34375,-1.333334 0.34375,-2.15625 z M 162.91016,98.66811 c -0.36459,0 -0.7448,0.03972 -1.14063,0.123047 -0.39583,0.08333 -0.76042,0.239574 -1.09375,0.46875 -0.32292,0.229165 -0.59375,0.541665 -0.8125,0.937503 -0.20833,0.40624 -0.3125,0.92708 -0.3125,1.5625 v 0.002 c 0,0.38541 0.0677,0.74479 0.20313,1.07812 0.1354,0.33334 0.35415,0.6198 0.65625,0.85938 0.3125,0.2396 0.71874,0.4271 1.21875,0.5625 0.51041,0.14584 1.14062,0.21875 1.89062,0.21875 1.9375,0 3.38542,-0.30208 4.34375,-0.90625 0.96875,-0.59375 1.45313,-1.45312 1.45313,-2.57813 0,-0.47916 -0.0625,-0.86979 -0.1875,-1.17187 -0.12501,-0.302083 -0.33334,-0.541667 -0.625,-0.71875 -0.28125,-0.166677 -0.65625,-0.281262 -1.125,-0.34375 -0.46875,-0.06251 -1.04167,-0.09375 -1.71875,-0.09375 z"
                transform="scale(0.26458333)"
                id="rect10"
                inkscape:export-xdpi="143.9426"
                inkscape:export-ydpi="143.9426"
                inkscape:connector-curvature="0"/>
        <g
                aria-label="@Large Research"
                style="font-style:normal;font-variant:normal;font-weight:normal;font-stretch:normal;font-size:14.11111164px;line-height:1.25;font-family:'Droid Sans';-inkscape-font-specification:'Droid Sans';letter-spacing:0px;word-spacing:0px;fill:#000000;fill-opacity:1;stroke:#000000;stroke-width:0;stroke-miterlimit:4;stroke-dasharray:none;stroke-opacity:1"
                id="text14"/>
        <g
                aria-label="Massivizing Computer Systems"
                style="font-style:normal;font-variant:normal;font-weight:normal;font-stretch:normal;font-size:14.11111164px;line-height:1.25;font-family:'Droid Sans';-inkscape-font-specification:'Droid Sans';letter-spacing:0px;word-spacing:0px;fill:#000000;fill-opacity:1;stroke:#000000;stroke-width:0;stroke-miterlimit:4;stroke-dasharray:none;stroke-opacity:1"
                id="text18"/>
    </g>
</svg>
